<svg xmlns="http://www.w3.org/2000/svg" viewBox="0 0 1190 1190" id="el_GyeDsL5Jl">
<style>
@keyframes appear-animation {
    0% {
        transform: translate(398.1499938964844px, 758.5999984741211px) scale(0, 0) translate(-398.1499938964844px, -758.5999984741211px);
    }
    100% {
        transform: translate(398.1499938964844px, 758.5999984741211px) scale(1, 1) translate(-398.1499938964844px, -758.5999984741211px);
    }
}
#el_GyeDsL5Jl * {
    animation-duration: 1.5s;
    animation-iteration-count: 1;
    animation-timing-function: cubic-bezier(0, 0, 1, 1);
}
#el_s2pAAfF995 {
    isolation: isolate;
}
#el_crFCDor7xB {
    fill: #f9b233;
}
#el_7RPWg106JW {
    fill: #b3dded;
}
#el_mrTvSrlmbr {
    fill: #a31b5c;
}
#el_PJKHqn-BAD {
    fill: #dedc06;
}
#el_WHlgHjikfI {
    fill: #e8501d;
}
#el_v4boZwK1ql {
    fill: #1f71b8;
}
#el_jBok8hSxhm {
    fill: #d61052;
}
#el_aRcoligxbl {
    fill: #662681;
}
#el_CXJCRpksI- {
    fill: #f9e8d8;
}
#el_uoyifAhFeD {
    fill: #b18049;
}
#el_MiHAIvw5At {
    fill: #9b6c3e;
}
#el_5iocDCkNWs {
    fill: #9c9b9b;
}
#el_ugfsmlWtiIg {
    fill: #9b6c3e;
}
#el__X07MShYe2o {
    fill: #fff;
}
#el_Ig0VkcDT4PX {
    fill: #e7dfdd;
}
#el_LcOD3NV86Fl {
    fill: #5a5a59;
}
#el__udn-EFtMz_ {
    fill: #3d3d3b;
}
#el_AdVE_nDeJ8J {
    fill: #f2ae53;
}
#el_2kPKR_jxOWz {
    fill: #f29107;
}
#el_y-6WYGV2Eto {
    fill: #585857;
}
#el_O5MTrCoqG1A {
    fill: #585857;
}
#el_1fdCQtIYs7Q {
    fill: #f9e8d8;
}
#el_Z-M2j8XEtOv {
    fill: #f4d9bf;
}
#el_nRlThFCfrgv {
    fill: #f9e8d8;
}
#el_QUaHRJEgQx7 {
    fill: #ededed;
    mix-blend-mode: multiply;
    -webkit-transform: translate(-643.57px, 546.48px) rotate(-45deg);
    transform: translate(-643.57px, 546.48px) rotate(-45deg);
}
#el_fyCV0bhN4EO {
    fill: #fff;
    -webkit-transform: translate(-683.75px, 526px) rotate(-45deg);
    transform: translate(-683.75px, 526px) rotate(-45deg);
}
#el_OL8e16ZByPV {
    fill: #f4d9bf;
}
#el_7N1HNfxjxZo {
    fill: #f4d9bf;
}
#el_pYGFRtiz_6T {
    fill: #f9e8d8;
}
#el_ujk8NBMtd-_an_SzDAr1a3D {
    animation-fill-mode: backwards;
    animation-name: appear-animation;
    animation-timing-function: cubic-bezier(0, 0.3, 0.58, 1);
    animation-delay: 1.5s;
}

</style>
<defs/><title>logo alexis</title><g id="el_s2pAAfF995"><g id="el_ujk8NBMtd-_an_SzDAr1a3D" data-animator-group="true" data-animator-type="2"><g id="el_ujk8NBMtd-" data-name="Ebene 3"><polygon points="725.31 110.48 666.59 128.02 641.2 175.52 667.13 167.77 436.62 596.4 479.38 619.49 709.6 191.39 717.11 216.51 742.71 168.61 735.86 145.67 735.83 145.67 725.31 110.48" id="el_crFCDor7xB"/><polygon points="1061.62 121.75 937.16 118.82 936.03 166.79 969.53 167.58 460.89 654.47 502.98 698.6 1011.54 211.78 1010.75 245.11 1058.72 246.25 1060.57 167.83 1060.53 167.83 1061.62 121.75" id="el_7RPWg106JW"/><path d="M878.5,425.4a9.31,9.31,0,0,0-7.67-10.66l-89.39-14.61a9.31,9.31,0,0,0-10.66,7.66l-1.11,6.81a9.31,9.31,0,0,0,7.66,10.66l44.2,7.22c5,.83,5.77,3.94,1.63,6.92L479.61,686.05a9.31,9.31,0,0,0-2.12,13l5.78,8a9.3,9.3,0,0,0,13,2.12L840,462.34c4.15-3,6.86-1.29,6,3.75l-7.28,44.58a9.29,9.29,0,0,0,7.66,10.65l6.81,1.12a9.3,9.3,0,0,0,10.65-7.67l10.51-64.24c.82-5,1.5-9.16,1.5-9.16s.68-4.12,1.5-9.16Z" id="el_mrTvSrlmbr"/><path d="M785.15,241.29,670.8,246.61a11.77,11.77,0,0,0-11.17,12.26l.41,8.72a11.76,11.76,0,0,0,12.26,11.17L718,276.63,420.53,607.51a11.76,11.76,0,0,0,.77,16.57l32.6,29.71a11.76,11.76,0,0,0,16.57-.77L768.4,321.67l2.17,46.63a11.76,11.76,0,0,0,12.26,11.17l8.72-.4a11.77,11.77,0,0,0,11.17-12.26l-3.82-82.19c-.3-6.45-.54-11.72-.54-11.72s-.23-5.28-.53-11.72l-.41-8.71A11.77,11.77,0,0,0,785.15,241.29Z" id="el_PJKHqn-BAD"/><polygon points="755.41 391.44 632.2 391.44 594.68 428.94 662.55 428.94 489.94 601.56 545.61 657.23 717.89 484.94 717.88 552.14 755.39 514.4 755.39 428.94 755.41 428.94 755.41 391.44" id="el_WHlgHjikfI"/><polygon points="543.98 364.98 458.85 394.95 424.5 466.91 489.78 443.94 398.15 635.1 424.92 647.93 516.49 456.88 539.41 521.99 573.99 450.13 561.94 415.9 561.9 415.91 543.98 364.98" id="el_v4boZwK1ql"/><polygon points="971.06 364.62 887.12 368.31 925.25 428.11 455.81 727.87 469.91 749.97 939.34 450.21 977.46 510.01 1016.23 435.47 1055 360.92 971.06 364.62" id="el_jBok8hSxhm"/><polygon points="790.4 569.59 725.13 562.32 755.77 593.57 486.07 713.46 507.73 731.12 505.91 758.6 775.63 638.94 777.8 682.64 816.74 629.75 855.67 576.86 790.4 569.59" id="el_aRcoligxbl"/></g></g><g id="el_zqDAsdnxTZ" data-name="Ebene 5"><path d="M329.6,918.78l74.68-70.44c6.79-4.24,22.06,17,6.36,31l-46.9,46.9a8.26,8.26,0,0,0-1,10.53l11,16-33.52,22.49C332.14,969.7,315.17,931.51,329.6,918.78Z" id="el_CXJCRpksI-"/><path d="M389.48,508.47a.86.86,0,0,0-.64-.27.82.82,0,0,0-.57.21l-.94.86a.81.81,0,0,0-.27.6.85.85,0,0,0,.21.62l4,4.42.13,3.42c.8,22-12.49,60.85-35.56,103.86-22.79,42.49-50.54,80.74-74.27,102.35l-60.43,60.31-.31.29a87.92,87.92,0,0,0-9.64,119.25L507.44,638Z" id="el_uoyifAhFeD"/><path d="M215.06,909a87.92,87.92,0,0,0,123.78,5.8l.17-.15,65.86-54.68c22.66-20.62,59.91-43.06,102.24-61.56,41.63-18.2,80.74-29.06,104.63-29.06a67.39,67.39,0,0,1,8.7.52l3.39.45,4,4.41a.9.9,0,0,0,.65.27.82.82,0,0,0,.57-.21l.94-.86a.86.86,0,0,0,.06-1.21L507.44,638,211.21,904.39c.19.24.37.5.57.74C212.88,906.48,214,907.77,215.06,909Z" id="el_MiHAIvw5At"/><path d="M433,911.81l-2.85-2.48-16.12-14a2.41,2.41,0,0,0-3.4.24l-11.84,13.62a2.42,2.42,0,0,0,.24,3.4L421.9,932.5a2.41,2.41,0,0,0,3.4-.24l11.84-13.62a2.42,2.42,0,0,0-.24-3.4Z" id="el_5iocDCkNWs"/><path d="M521.83,959.68l-66-45.67a4.64,4.64,0,0,0-5.77.39l-10,9.09a.66.66,0,0,1-.79.08l-28.14-16.32a.67.67,0,0,1-.33-.51.68.68,0,0,1,.21-.57l.08-.06L428.62,894a3.92,3.92,0,0,0,.5-.39,4.65,4.65,0,0,0-.6-7.33L396.89,865.7a4.63,4.63,0,0,0-5.49.31l-53.28,43.86-.18.15a4.66,4.66,0,0,0,.78,7.45l141.79,83.13A4.63,4.63,0,0,0,486,1000l36.33-33.08a4.64,4.64,0,0,0-.49-7.26Z" id="el_ugfsmlWtiIg"/><path d="M512.46,584.6A63.28,63.28,0,0,0,471.84,592l-2.62,1.49L509,637.21l38.59-34.71A63.11,63.11,0,0,0,512.46,584.6Z" id="el__X07MShYe2o"/><path d="M554.56,682.87a63,63,0,0,0-5.12-78.42c-.6-.66-1.22-1.31-1.85-2L509,637.21l43.84,48.13Z" id="el_Ig0VkcDT4PX"/><path d="M274.83,730.65l-54.28,54.16a88.2,88.2,0,0,0-9.4,120.25l122.32-110Z" id="el_LcOD3NV86Fl"/><path d="M279.9,938A87.7,87.7,0,0,0,339,915.18l.18-.17,58.93-48.93-64.68-71-122.32,110c1.15,1.42,2.33,2.82,3.58,4.18A88.26,88.26,0,0,0,279.9,938Z" id="el__udn-EFtMz_"/><path d="M388.73,539.2c-4.68,22-16.41,51.34-33.2,82.66-20.65,38.53-45.77,74.08-68,96.33l59.14,65,145.23-130.6Z" id="el_AdVE_nDeJ8J"/><path d="M514,795.89c32.73-13.79,63-22.73,85.39-25.34l-107.46-118L346.71,783.15l65,71.41C436,834.55,473.71,812.85,514,795.89Z" id="el_2kPKR_jxOWz"/><path d="M394.15,505.08a7.23,7.23,0,1,0-10.69,9.74l117.8,129.35L512,634.5Z" id="el_y-6WYGV2Eto"/><path d="M633.4,778.55a7.23,7.23,0,0,0,.48-10.21L512,634.5l-10.75,9.67,121.93,133.9A7.23,7.23,0,0,0,633.4,778.55Z" id="el_O5MTrCoqG1A"/><path d="M469.53,922.64c29.16-23.49,20-38.72,10.79-45.26-15.18-10.78-28.31,11.33-37,25.19C437,912.61,453.06,935.91,469.53,922.64Z" id="el_1fdCQtIYs7Q"/><path d="M439.93,986c-18.15,16.9-27.85,18.46-47.88,23.47-17.57,4.39-54.38,49.22-69,67.72l32.57,32.58,69.54-67.68c19.86,6.18,40.2-6.54,69.43-61L515,953.24,471.31,919C457.94,934.85,458.08,969.14,439.93,986Z" id="el_Z-M2j8XEtOv"/><path d="M273.91,1028.13l49.11,49.1c14.65-18.5,51.46-63.33,69-67.72,20-5,29.73-6.57,47.88-23.47s18-51.19,31.38-67.06l-43.43-43.89Z" id="el_nRlThFCfrgv"/><rect x="332.26" y="996.64" width="11.25" height="106.93" rx="1" ry="1" id="el_QUaHRJEgQx7"/><rect x="230.13" y="1025.42" width="125.87" height="125.87" rx="5" ry="5" id="el_fyCV0bhN4EO"/><path d="M506.73,963.59c23.38-19.59,15.69-31.84,8.09-37-12.52-8.54-22.88,9.67-29.74,21.09C480.1,955.92,493.53,974.64,506.73,963.59Z" id="el_OL8e16ZByPV"/><path d="M490.36,939c24.08-20.16,16.15-32.78,8.33-38.12-12.9-8.8-23.56,10-30.63,21.71C462.94,931.15,476.76,950.43,490.36,939Z" id="el_7N1HNfxjxZo"/><path d="M445.42,900.84c27.66-19.33,20.35-33.58,12.48-40-13-10.63-26.15,8.45-34.82,20.37C416.8,889.83,429.8,911.76,445.42,900.84Z" id="el_pYGFRtiz_6T"/></g></g></svg>